<svg width="92" height="61" viewBox="0 0 92 61" fill="none" xmlns="http://www.w3.org/2000/svg">
<path d="M31.128 29.784C29.208 30.4667 27.416 30.9787 25.752 31.32C24.1307 31.6613 22.552 31.832 21.016 31.832C14.4453 31.832 9.432 30.2747 5.976 27.16C2.56267 24.0453 0.856 19.5013 0.856 13.528V0.0239868H15.704V11.864C15.704 14.5947 16.3013 16.6213 17.496 17.944C18.6907 19.224 20.504 19.864 22.936 19.864C24.6 19.864 26.0933 19.7147 27.416 19.416C28.7387 19.0747 29.848 18.6053 30.744 18.008L31.128 29.784ZM29.144 44.824V0.0239868H43.992V44.824H29.144Z" fill="black"/>
<path d="M73.721 29.784C79.1823 29.784 83.449 31.0213 86.521 33.496C89.6356 35.928 91.193 39.6186 91.193 44.568C91.193 49.9013 89.4437 53.9546 85.945 56.728C82.4463 59.4587 77.7317 60.824 71.801 60.824L49.593 60.824L49.593 16.024L64.441 16.024L64.441 29.784L73.721 29.784ZM70.777 50.264C72.2703 50.264 73.5077 49.7947 74.489 48.856C75.513 47.8746 76.025 46.5307 76.025 44.824C76.025 43.1173 75.513 41.944 74.489 41.304C73.5077 40.664 72.2703 40.344 70.777 40.344L64.441 40.344L64.441 50.264L70.777 50.264Z" fill="black"/>
</svg>
